# xmcd
#
# Track frame offsets:
#	150
#	16233
#	30772
#	40325
#	52189
#	65601
#	79005
#	88411
#	104520
#	119461
#	135285
#	150650
#	163908
#	178625
#	191524
#
# Disc length: 2749 seconds
#
# Revision: 0
# Processed by: cddbd v1.4PL0 Copyright (c) Steve Scherf et al.
# Submitted via: dBpowerAMP V4.0
#
DISCID=c40abb0f
DTITLE=The Chapelaires - I'll Talk To The Father
DYEAR=2000
DGENRE=Gospel
TTITLE0=I'll Talk To The Father
TTITLE1=He Was The Man
TTITLE2=At Calvary
TTITLE3=Borrowed Tomb
TTITLE4=Still A Lot of  Blood
TTITLE5=Never Been This Homesick Before
TTITLE6=Over and Over, Amen
TTITLE7=House of Gold
TTITLE8=God Likes To Work
TTITLE9=Just A Closer Walk
TTITLE10=Banjo Medley
TTITLE11=Life By the Spirit
TTITLE12=Look For Me
TTITLE13=The Moment I Rise
TTITLE14=I'd Do t All Over Again
EXTD=
EXTT0=
EXTT1=
EXTT2=
EXTT3=
EXTT4=
EXTT5=
EXTT6=
EXTT7=
EXTT8=
EXTT9=
EXTT10=
EXTT11=
EXTT12=
EXTT13=
EXTT14=
PLAYORDER=
